<svg xmlns="http://www.w3.org/2000/svg" width="136" height="246" viewBox="0 0 136 246" fill="none"><circle cx="2" cy="2" r="2" fill="#56AAF3"></circle><circle cx="24" cy="2" r="2" fill="#56AAF3"></circle><circle cx="46" cy="2" r="2" fill="#56AAF3"></circle><circle cx="68" cy="2" r="2" fill="#56AAF3"></circle><circle cx="90" cy="2" r="2" fill="#56AAF3"></circle><circle cx="112" cy="2" r="2" fill="#56AAF3"></circle><circle cx="134" cy="2" r="2" fill="#56AAF3"></circle><circle cx="2" cy="24" r="2" fill="#56AAF3"></circle><circle cx="24" cy="24" r="2" fill="#56AAF3"></circle><circle cx="46" cy="24" r="2" fill="#56AAF3"></circle><circle cx="68" cy="24" r="2" fill="#56AAF3"></circle><circle cx="90" cy="24" r="2" fill="#56AAF3"></circle><circle cx="112" cy="24" r="2" fill="#56AAF3"></circle><circle cx="134" cy="24" r="2" fill="#56AAF3"></circle><circle cx="2" cy="46" r="2" fill="#56AAF3"></circle><circle cx="2" cy="155.997" r="2" fill="#56AAF3"></circle><circle cx="24" cy="46" r="2" fill="#56AAF3"></circle><circle cx="24" cy="155.997" r="2" fill="#56AAF3"></circle><circle cx="46" cy="46" r="2" fill="#56AAF3"></circle><circle cx="46" cy="155.997" r="2" fill="#56AAF3"></circle><circle cx="68" cy="46" r="2" fill="#56AAF3"></circle><circle cx="68" cy="155.997" r="2" fill="#56AAF3"></circle><circle cx="90" cy="46" r="2" fill="#56AAF3"></circle><circle cx="90" cy="155.997" r="2" fill="#56AAF3"></circle><circle cx="112" cy="46" r="2" fill="#56AAF3"></circle><circle cx="112" cy="155.997" r="2" fill="#56AAF3"></circle><circle cx="134" cy="46" r="2" fill="#56AAF3"></circle><circle cx="134" cy="155.997" r="2" fill="#56AAF3"></circle><circle cx="2" cy="68" r="2" fill="#56AAF3"></circle><circle cx="2" cy="177.997" r="2" fill="#56AAF3"></circle><circle cx="24" cy="68" r="2" fill="#56AAF3"></circle><circle cx="24" cy="177.997" r="2" fill="#56AAF3"></circle><circle cx="46" cy="68" r="2" fill="#56AAF3"></circle><circle cx="46" cy="177.997" r="2" fill="#56AAF3"></circle><circle cx="68" cy="68" r="2" fill="#56AAF3"></circle><circle cx="68" cy="177.997" r="2" fill="#56AAF3"></circle><circle cx="90" cy="68" r="2" fill="#56AAF3"></circle><circle cx="90" cy="177.997" r="2" fill="#56AAF3"></circle><circle cx="112" cy="68" r="2" fill="#56AAF3"></circle><circle cx="112" cy="177.997" r="2" fill="#56AAF3"></circle><circle cx="134" cy="68" r="2" fill="#56AAF3"></circle><circle cx="134" cy="177.997" r="2" fill="#56AAF3"></circle><circle cx="2" cy="90" r="2" fill="#56AAF3"></circle><circle cx="2" cy="199.997" r="2" fill="#56AAF3"></circle><circle cx="24" cy="90" r="2" fill="#56AAF3"></circle><circle cx="24" cy="199.997" r="2" fill="#56AAF3"></circle><circle cx="46" cy="90" r="2" fill="#56AAF3"></circle><circle cx="46" cy="199.997" r="2" fill="#56AAF3"></circle><circle cx="68" cy="90" r="2" fill="#56AAF3"></circle><circle cx="68" cy="199.997" r="2" fill="#56AAF3"></circle><circle cx="90" cy="90" r="2" fill="#56AAF3"></circle><circle cx="90" cy="199.997" r="2" fill="#56AAF3"></circle><circle cx="112" cy="90" r="2" fill="#56AAF3"></circle><circle cx="112" cy="199.997" r="2" fill="#56AAF3"></circle><circle cx="134" cy="90" r="2" fill="#56AAF3"></circle><circle cx="134" cy="199.997" r="2" fill="#56AAF3"></circle><circle cx="2" cy="112" r="2" fill="#56AAF3"></circle><circle cx="2" cy="221.997" r="2" fill="#56AAF3"></circle><circle cx="24" cy="112" r="2" fill="#56AAF3"></circle><circle cx="24" cy="221.997" r="2" fill="#56AAF3"></circle><circle cx="46" cy="112" r="2" fill="#56AAF3"></circle><circle cx="46" cy="221.997" r="2" fill="#56AAF3"></circle><circle cx="68" cy="112" r="2" fill="#56AAF3"></circle><circle cx="68" cy="221.997" r="2" fill="#56AAF3"></circle><circle cx="90" cy="112" r="2" fill="#56AAF3"></circle><circle cx="90" cy="221.997" r="2" fill="#56AAF3"></circle><circle cx="112" cy="112" r="2" fill="#56AAF3"></circle><circle cx="112" cy="221.997" r="2" fill="#56AAF3"></circle><circle cx="134" cy="112" r="2" fill="#56AAF3"></circle><circle cx="134" cy="221.997" r="2" fill="#56AAF3"></circle><circle cx="2" cy="134" r="2" fill="#56AAF3"></circle><circle cx="2" cy="243.997" r="2" fill="#56AAF3"></circle><circle cx="24" cy="134" r="2" fill="#56AAF3"></circle><circle cx="24" cy="243.997" r="2" fill="#56AAF3"></circle><circle cx="46" cy="134" r="2" fill="#56AAF3"></circle><circle cx="46" cy="243.997" r="2" fill="#56AAF3"></circle><circle cx="68" cy="134" r="2" fill="#56AAF3"></circle><circle cx="68" cy="243.997" r="2" fill="#56AAF3"></circle><circle cx="90" cy="134" r="2" fill="#56AAF3"></circle><circle cx="90" cy="243.997" r="2" fill="#56AAF3"></circle><circle cx="112" cy="134" r="2" fill="#56AAF3"></circle><circle cx="112" cy="243.997" r="2" fill="#56AAF3"></circle><circle cx="134" cy="134" r="2" fill="#56AAF3"></circle><circle cx="134" cy="243.997" r="2" fill="#56AAF3"></circle></svg>