<svg id="Layer_1" data-name="Layer 1" xmlns="http://www.w3.org/2000/svg" viewBox="0 0 62.12 62.03"><defs><style>.cls-1{fill:#fff;}</style></defs><g id="Group_353" data-name="Group 353"><path id="Path_178" data-name="Path 178" class="cls-1" d="M30.16,0a6.19,6.19,0,0,1,3.9,1.32L37.94,4.2a6.44,6.44,0,0,0,3.69,1.22,49.9,49.9,0,0,1,5.19.37,6,6,0,0,1,5.09,4.81c.4,1.54.75,3.08,1.1,4.63a6.39,6.39,0,0,0,2,3.29c1.11,1,2.21,2.05,3.3,3.1a6.27,6.27,0,0,1,1.32,7.74c-.57,1.16-1.11,2.34-1.76,3.46A7.9,7.9,0,0,0,57,38.27a32.81,32.81,0,0,1,.44,4.3,5.93,5.93,0,0,1-3.65,5.79c-1.43.69-2.9,1.29-4.37,1.89a6.63,6.63,0,0,0-3.13,2.62c-.78,1.23-1.59,2.45-2.4,3.67a6.31,6.31,0,0,1-7.53,2.7c-1.36-.42-2.72-.81-4.08-1.24a6.78,6.78,0,0,0-4.18,0,50.33,50.33,0,0,1-4.93,1.42,5.94,5.94,0,0,1-6.42-2.54c-.92-1.27-1.76-2.6-2.59-3.93a6.73,6.73,0,0,0-3.26-2.74c-1.35-.54-2.69-1.14-4-1.72A6.37,6.37,0,0,1,3,41.43c.24-1.5.4-3,.55-4.54a6.12,6.12,0,0,0-.68-3.46q-1-2-2.06-4.08a6.24,6.24,0,0,1,1.33-7.73q1.59-1.53,3.21-3a6.84,6.84,0,0,0,2.12-3.69c.34-1.54.68-3.1,1.1-4.62a6.24,6.24,0,0,1,5.93-4.64c1.74-.07,3.47-.21,5.2-.34A5.34,5.34,0,0,0,22.44,4.2c1.28-.94,2.55-1.9,3.83-2.85A6.17,6.17,0,0,1,30.16,0ZM50.7,29.78a20.46,20.46,0,1,0,0,.13Z"/><path id="Path_179" data-name="Path 179" class="cls-1" d="M30.21,11.22a18.57,18.57,0,1,1-18.6,18.54A18.57,18.57,0,0,1,30.21,11.22ZM27.59,31.39a5.37,5.37,0,0,0-.35-.45c-1.23-1.23-2.44-2.47-3.69-3.67a2.73,2.73,0,0,0-3.85,0,2.69,2.69,0,0,0-.07,3.8l0,0q3.07,3.15,6.22,6.22a2.62,2.62,0,0,0,3.7,0l0,0q5.58-5.59,11.13-11.25a2.5,2.5,0,0,0,.69-2.31,2.63,2.63,0,0,0-1.88-2.14,2.59,2.59,0,0,0-2.76.69c-.75.73-1.47,1.49-2.22,2.23-2.3,2.25-4.61,4.5-7,6.84Z"/></g></svg>