<svg id="Layer_1" data-name="Layer 1" xmlns="http://www.w3.org/2000/svg" viewBox="0 0 30 30"><defs><style>.cls-1{fill:#fbfcfd;}</style></defs><g id="Group_440" data-name="Group 440"><path id="Path_234" data-name="Path 234" class="cls-1" d="M1.57,11.29l7.77-3A1.12,1.12,0,0,0,9.78,8l5.06-6.28L15,1.56l.16.17L20.24,8a1.05,1.05,0,0,0,.43.3l7.49,2.86.27.1a2.32,2.32,0,0,1-.14.23Q26.1,14.9,23.9,18.26a1.22,1.22,0,0,0-.17.56c-.14,2.59-.26,5.22-.39,7.83a3.82,3.82,0,0,1,0,.43l-7-1.9c.9-3.35.15-6.19-2.72-8.2-2.68-1.87-5.48-1.67-8.23.06l-.17-.24C4,15.05,2.89,13.3,1.75,11.57a1.84,1.84,0,0,0-.17-.22Z"/><path id="Path_235" data-name="Path 235" class="cls-1" d="M15.12,22.81a5.61,5.61,0,1,1-5.63-5.59h0A5.61,5.61,0,0,1,15.12,22.81ZM6.92,23l1.93,1.92,3.26-3.25L11,20.55,8.79,22.79,8,21.9Z"/></g></svg>