<svg id="Layer_1" data-name="Layer 1" xmlns="http://www.w3.org/2000/svg" viewBox="0 0 30 30"><defs><style>.cls-1{fill:#fdfefe;}</style></defs><g id="Group_442" data-name="Group 442"><path id="Path_241" data-name="Path 241" class="cls-1" d="M28.38,15.79c-.08.52-.13,1-.21,1.55A13.26,13.26,0,0,1,17.85,28.09,13.08,13.08,0,0,1,5.72,24.68l-.26-.21L2.91,27V20.37H9.56L7.4,22.52A10.69,10.69,0,1,0,4.25,15H1.57L1.7,13.2A13.25,13.25,0,0,1,5.42,5.64a13.17,13.17,0,0,1,7.64-3.88c.39,0,.82-.09,1.21-.17h1.46c.48.08.95.13,1.39.21A13.4,13.4,0,0,1,25.4,6.59a13.22,13.22,0,0,1,2.81,6.18c.09.52.13,1.08.22,1.59Z"/><path id="Path_242" data-name="Path 242" class="cls-1" d="M15,7a2.53,2.53,0,0,1,.09.34l1.16,4.4a.55.55,0,0,0,.3.39,2.7,2.7,0,0,1,.87,3.37,2.66,2.66,0,0,1-3.33,1.34,2.56,2.56,0,0,1-1.72-2.2,2.6,2.6,0,0,1,1.12-2.51.67.67,0,0,0,.26-.34c.39-1.47.78-2.94,1.21-4.45C14.91,7.29,15,7.2,15,7Z"/></g></svg>